<?xml version="1.0" encoding="UTF-8"?>
<svg version="1.1" xmlns="http://www.w3.org/2000/svg" width="512" height="512">
<path d="M0 0 C1.61501114 -0.00576172 1.61501114 -0.00576172 3.26264876 -0.01163983 C5.02818877 -0.01034011 5.02818877 -0.01034011 6.82939625 -0.00901413 C8.08434684 -0.01198525 9.33929743 -0.01495637 10.63227683 -0.01801753 C14.11336279 -0.02607459 17.59442812 -0.02787638 21.0755223 -0.028615 C24.83094927 -0.03046781 28.58636559 -0.03801631 32.34178638 -0.04475021 C40.55264221 -0.05832496 48.76349314 -0.06435695 56.97435832 -0.06876087 C62.10277424 -0.0715248 67.23118828 -0.07576244 72.35960293 -0.08026505 C86.56297373 -0.0924567 100.76634302 -0.10275615 114.96971893 -0.10614014 C115.87855197 -0.1063597 116.78738501 -0.10657927 117.72375845 -0.10680549 C119.09024178 -0.10713291 119.09024178 -0.10713291 120.48433083 -0.10746694 C122.33029441 -0.1079104 124.17625799 -0.10835696 126.02222157 -0.10880661 C126.9378803 -0.10902804 127.85353904 -0.10924947 128.79694501 -0.10947761 C143.63057241 -0.11342479 158.46415066 -0.13087682 173.29775908 -0.15416613 C188.5327948 -0.17789232 203.76780587 -0.19034257 219.00286037 -0.19150805 C227.55450926 -0.19242411 236.10609411 -0.19815899 244.65772533 -0.21632767 C251.94030434 -0.23174577 259.22279951 -0.23683905 266.50539174 -0.22858956 C270.21904218 -0.22468907 273.93252389 -0.2255831 277.64615345 -0.23964691 C281.67781457 -0.25477509 285.70909726 -0.24650158 289.7407732 -0.23606491 C290.90664626 -0.24412132 292.07251933 -0.25217772 293.27372187 -0.26047826 C305.15715159 -0.18861533 313.79661978 2.41810132 322.32520008 10.83064651 C329.10383781 18.24217917 330.78802866 26.05783919 330.66504383 35.94392776 C330.66053211 36.63679886 330.65602039 37.32966995 330.65137196 38.04353714 C330.6396754 39.73953845 330.62174307 41.4354948 330.60254383 43.13142776 C332.25854603 43.10786209 332.25854603 43.10786209 333.94800282 43.08382034 C338.07976329 43.02914494 342.21149238 42.99494209 346.34351063 42.96663284 C348.12514102 42.95163134 349.90673503 42.93122343 351.68823719 42.90510941 C354.26262918 42.86834268 356.83652913 42.85161492 359.41113758 42.83845901 C360.19588963 42.82297516 360.98064167 42.8074913 361.78917408 42.79153824 C370.60038492 42.78891156 377.7491902 45.43105255 384.52441883 51.04549026 C392.74602129 59.298001 394.8140623 68.92377068 394.87469274 80.17877662 C394.87091341 81.34706477 394.86713409 82.51535291 394.86324024 83.71904373 C394.86706579 84.9765576 394.87089134 86.23407147 394.87483281 87.52969182 C394.88508602 91.00402728 394.88293786 94.47825925 394.87865222 97.9526031 C394.87618011 101.70593796 394.88520516 105.45924822 394.8926897 109.21257401 C394.90542528 116.55954745 394.90723182 123.90648432 394.90488944 131.25346695 C394.90310484 137.2266883 394.90485896 143.19989857 394.90911388 149.17311859 C394.90970907 150.0239587 394.91030426 150.87479882 394.91091749 151.75142197 C394.91212927 153.48002838 394.9133434 155.2086348 394.91455986 156.93724121 C394.92543101 173.14050282 394.92327492 189.34374361 394.91717502 205.54700638 C394.91200625 220.36104703 394.92326099 235.1750219 394.94227324 249.98904954 C394.96165834 265.21062435 394.96990646 280.43216807 394.96614999 295.65375531 C394.96423896 304.19529391 394.96671589 312.73677654 394.98086452 321.27830505 C394.99278786 328.54983818 394.99417254 335.82128088 394.98207436 343.09281527 C394.97619234 346.80040636 394.97506735 350.50783213 394.98707676 354.21541214 C394.99996228 358.24035346 394.98945509 362.26490261 394.97676563 366.28984451 C394.98413992 367.45367122 394.9915142 368.61749792 394.99911195 369.8165921 C394.9243318 381.1050193 392.69457444 389.97703083 384.60254383 398.13142776 C378.07943237 403.42932873 371.85985555 406.38660386 363.33829212 406.3719368 C361.48322041 406.37606079 361.48322041 406.37606079 359.59067249 406.3802681 C358.23346326 406.37319128 356.87625501 406.36592168 355.51904774 406.35847855 C354.07975745 406.35791397 352.64046659 406.3582319 351.20117664 406.35936356 C347.30491121 406.35993626 343.40876946 406.34819525 339.51253271 406.33421564 C335.43661632 406.32169461 331.36069695 406.3205367 327.28476429 406.31816483 C319.57133915 406.31195409 311.85797085 406.29554877 304.14457071 406.27546585 C295.36105166 406.25309419 286.57752987 406.24211023 277.79398942 406.23207498 C259.73014203 406.21118219 241.6663475 406.17601411 223.60254383 406.13142776 C224.06999063 409.18759211 224.54327384 412.24282543 225.01758289 415.29793167 C225.21512669 416.5901841 225.21512669 416.5901841 225.41666126 417.90854263 C226.3051066 423.60692376 227.38878193 429.06961653 229.35254383 434.50642776 C229.61003407 435.24207962 229.8675243 435.97773148 230.13281727 436.73567581 C235.12256524 450.49641835 243.0381897 462.42710225 253.22754383 472.88142776 C255.99368754 476.05737054 256.41806634 478.82159855 256.13379383 482.97908401 C255.20989205 486.72224489 253.41227296 488.51772625 250.60254383 491.13142776 C246.94289326 492.35131129 243.57591757 492.27952613 239.76530933 492.27859879 C238.95843609 492.28227547 238.15156284 492.28595216 237.32023889 492.28974026 C234.60728662 492.30078346 231.89437264 492.304622 229.18140125 492.30842972 C227.2399785 492.31469381 225.29855696 492.32134057 223.35713673 492.32834244 C218.07609237 492.34575533 212.79505707 492.35630468 207.51399112 492.36454797 C204.21582777 492.36969681 200.91766724 492.37577255 197.61950588 492.3820591 C187.30386307 492.40111076 176.98822743 492.41534276 166.67257041 492.42367107 C154.75799988 492.4334487 142.84361488 492.45978215 130.92910975 492.50017196 C121.72393452 492.53030848 112.51881254 492.54513754 103.31358892 492.54845208 C97.8136493 492.55080508 92.31390789 492.55979833 86.81402111 492.58491325 C81.64051573 492.60815626 76.4673396 492.61244235 71.29379559 492.60215187 C69.3950971 492.60165551 67.49638261 492.60800548 65.5977335 492.62170792 C63.00500268 492.63937251 60.41346048 492.63234787 57.82072926 492.61917496 C56.69440272 492.63562883 56.69440272 492.63562883 55.54532212 492.6524151 C50.43211233 492.58971808 47.52741622 491.37341689 43.60254383 488.13142776 C41.12318499 484.4123895 40.95840207 481.44222264 41.60254383 477.13142776 C43.60743163 473.20518916 46.38742864 470.27919027 49.35254383 467.06892776 C62.43825643 452.56986073 69.35720455 434.24122807 72.21973133 415.19392776 C72.3543578 414.31929886 72.48898426 413.44466995 72.62769032 412.54353714 C72.95609831 410.40669576 73.27980589 408.26913287 73.60254383 406.13142776 C72.85931684 406.13511494 72.11608986 406.13880211 71.35034084 406.14260101 C53.23778854 406.23106833 35.12527955 406.29719385 17.01255703 406.33867645 C8.25324827 406.35927209 -0.50591597 406.38733511 -9.26513195 406.43318558 C-16.90267558 406.47314544 -24.5401145 406.49888236 -32.17775977 406.50778174 C-36.21915538 406.51298107 -40.26025154 406.52513819 -44.30155087 406.55434799 C-48.11173408 406.58166209 -51.92149678 406.58984083 -55.73176861 406.58385849 C-57.12406614 406.58495163 -58.51637892 406.5928101 -59.90859127 406.60824966 C-71.26987165 406.72797923 -80.18413807 405.10060868 -88.64354992 397.11970901 C-96.64880084 388.0447141 -97.69565619 378.28632017 -97.65815258 366.66406631 C-97.66197813 365.40740687 -97.66580367 364.15074743 -97.66974515 362.8560074 C-97.6800116 359.37941266 -97.67784679 355.90292121 -97.67356455 352.42631805 C-97.67109484 348.67228391 -97.68011459 344.91827448 -97.68760204 341.16424942 C-97.70034468 333.81379677 -97.70214324 326.46338065 -97.69980178 319.11291882 C-97.69801781 313.13681314 -97.69976995 307.16071854 -97.70402622 301.18461418 C-97.70462141 300.33363858 -97.7052166 299.48266297 -97.70582983 298.60590023 C-97.7070416 296.87705228 -97.70825573 295.14820433 -97.7094722 293.41935638 C-97.72034627 277.2094227 -97.718186 260.99950982 -97.71208736 244.78957496 C-97.70691949 229.96900422 -97.71817042 215.14849923 -97.73718558 200.3279415 C-97.75657087 185.10187829 -97.76481869 169.87584618 -97.76106232 154.64977056 C-97.75915118 146.10486361 -97.76162932 137.56001261 -97.77577686 129.01511574 C-97.78770051 121.73989861 -97.78908461 114.46477186 -97.7769867 107.18955346 C-97.77110462 103.47994408 -97.76997981 99.77049994 -97.7819891 96.06090164 C-97.79487462 92.03371735 -97.78436739 88.00692501 -97.77167797 83.97974014 C-97.77905226 82.81523132 -97.78642654 81.6507225 -97.79402429 80.45092553 C-97.72335438 69.77691206 -95.61737158 60.28781756 -88.39745617 52.13142776 C-80.2447894 45.08192713 -72.95538998 42.79909077 -62.40136242 42.93611526 C-61.15104481 42.94036011 -61.15104481 42.94036011 -59.87546825 42.9446907 C-57.23681257 42.95580487 -54.59850769 42.98089262 -51.95995617 43.00642776 C-50.16113298 43.01646891 -48.36230442 43.02559277 -46.56347179 43.03377151 C-42.17466662 43.05571541 -37.78612069 43.0901839 -33.39745617 43.13142776 C-33.41050793 42.11169876 -33.42355968 41.09196976 -33.43700695 40.04133987 C-33.44756483 38.68465275 -33.45780172 37.32796311 -33.46776867 35.97127151 C-33.47719494 35.30140213 -33.48662121 34.63153275 -33.49633312 33.94136429 C-33.55503799 23.26686243 -30.11172552 15.92451463 -22.69823742 8.40877151 C-16.10362629 2.37729572 -8.91180216 0.01196639 0 0 Z " fill="#414141" transform="translate(107.39745616912842,9.868572235107422)"/>
<path d="M0 0 C105.6 0 211.2 0 320 0 C320 70.29 320 140.58 320 213 C214.4 213 108.8 213 0 213 C0 142.71 0 72.42 0 0 Z " fill="#6558FE" transform="translate(96,96)"/>
<path d="M0 0 C105.6 0 211.2 0 320 0 C320 70.29 320 140.58 320 213 C214.4 213 108.8 213 0 213 C0 142.71 0 72.42 0 0 Z M25.6875 50.3125 C21.59775347 56.82580002 20.55541732 62.61586933 20.61181641 70.13476562 C20.60655945 71.01065842 20.60130249 71.88655121 20.59588623 72.78898621 C20.58276751 75.66159313 20.59139539 78.53363821 20.6015625 81.40625 C20.59953943 83.41589463 20.59662605 85.42553854 20.59286499 87.43518066 C20.58845264 91.63801086 20.59483762 95.84064921 20.60888672 100.04345703 C20.62597784 105.41668216 20.61613083 110.78945766 20.59816933 116.16266632 C20.58730208 120.30978756 20.59079133 124.4568031 20.5985527 128.60392761 C20.60054658 130.58456984 20.59812414 132.56522183 20.59111404 134.54585266 C20.58345108 137.31923658 20.59517135 140.09190352 20.61181641 142.86523438 C20.60574371 143.67482101 20.59967102 144.48440765 20.59341431 145.31852722 C20.67266296 152.48623763 22.37926693 158.81585498 27.25 164.3125 C27.79140625 164.94800781 28.3328125 165.58351563 28.890625 166.23828125 C34.76447374 171.1440327 40.64193304 171.43454065 47.97520447 171.38095093 C49.45803865 171.38797089 49.45803865 171.38797089 50.97082907 171.39513266 C54.27487967 171.40707423 57.57851486 171.39762845 60.88256836 171.38818359 C63.25482932 171.39224968 65.62708839 171.39759177 67.99934387 171.40411377 C73.76899101 171.41636971 79.53850672 171.41458057 85.30815785 171.40587585 C89.99900773 171.39909259 94.6898248 171.39818535 99.38067818 171.4014473 C100.04905738 171.401907 100.71743659 171.40236669 101.40606971 171.40284032 C102.76400714 171.40379953 104.12194455 171.40477217 105.47988195 171.4057581 C118.20559338 171.41430737 130.93123992 171.40448548 143.65694071 171.388357 C154.56714337 171.3749573 165.47725024 171.37727991 176.38745117 171.39111328 C189.06698656 171.4071826 201.74646509 171.41348021 214.42600924 171.40427649 C215.77917484 171.40332088 217.13234044 171.40237777 218.48550606 171.4014473 C219.15123013 171.40098447 219.81695421 171.40052164 220.50285174 171.40004479 C225.1854859 171.39745872 229.86807301 171.40196486 234.55070305 171.40888596 C240.85854973 171.41755786 247.16621571 171.41152931 253.47404289 171.39420319 C255.7879303 171.39023942 258.10183293 171.39137049 260.41571426 171.39799118 C263.57661814 171.40620092 266.73694469 171.39589137 269.89781189 171.38095093 C271.26810977 171.39098918 271.26810977 171.39098918 272.66609043 171.40123022 C280.91291 171.32573598 287.36701704 169.26843311 293.52734375 163.61328125 C298.95231749 157.67027288 299.15378734 150.87589635 299.19287109 143.25927734 C299.20104858 142.37742767 299.20922607 141.495578 299.21765137 140.58700562 C299.24245183 137.66998971 299.25900983 134.75302239 299.2734375 131.8359375 C299.27876118 130.83709156 299.28408485 129.83824562 299.28956985 128.80913162 C299.31628123 123.51973489 299.33566054 118.23036156 299.35009766 112.94091797 C299.36342231 108.57416775 299.391251 104.20788641 299.43212891 99.84130859 C299.48157635 94.55872576 299.50623378 89.27656734 299.51332474 83.99376297 C299.52001677 81.98681631 299.53518511 79.97987837 299.55921555 77.97306442 C300.04788038 61.97994395 300.04788038 61.97994395 292.48617554 48.38265991 C288.56704999 44.88365857 284.9163631 42.75366405 279.65704727 42.73993778 C278.79013457 42.73287219 277.92322186 42.7258066 277.03003907 42.7185269 C276.08219222 42.72094198 275.13434536 42.72335707 274.15777588 42.72584534 C273.14728172 42.72060866 272.13678756 42.71537198 271.09567237 42.70997661 C267.69948406 42.69493889 264.30344592 42.69427063 260.90722656 42.69360352 C258.47629541 42.68598453 256.04536668 42.67755749 253.61444092 42.66838074 C247.00277863 42.64640211 240.391152 42.63761051 233.77946186 42.63255429 C229.64992355 42.62929655 225.52039455 42.62277357 221.39086151 42.6155529 C209.95404994 42.59598701 198.51724702 42.57958292 187.08041763 42.57667637 C186.34860302 42.5764888 185.61678841 42.57630123 184.8627976 42.57610798 C183.37926976 42.57574173 181.89574192 42.57537803 180.41221407 42.57501686 C179.30759682 42.57474265 179.30759682 42.57474265 178.18066406 42.57446289 C177.44335209 42.57428234 176.70604011 42.57410179 175.94638535 42.57391577 C164.00182232 42.57037485 152.05743965 42.54335763 140.11293915 42.505965 C127.8453496 42.46786876 115.57784951 42.44851879 103.3101995 42.44821686 C96.42409891 42.44763256 89.53821344 42.43915849 82.65216827 42.41021919 C76.1744361 42.38312085 69.69701764 42.38181176 63.21924591 42.39787483 C60.84245883 42.3996925 58.46564747 42.39297012 56.08891296 42.37705612 C52.84215597 42.35664321 49.59689646 42.36712082 46.35015869 42.38526917 C45.41123472 42.3720692 44.47231076 42.35886923 43.50493455 42.34526926 C35.89180189 42.44235847 31.0396359 44.9603641 25.6875 50.3125 Z " fill="#F7F8F9" transform="translate(96,96)"/>
<path d="M0 0 C147.84 0 295.68 0 448 0 C448 56 448 56 444 62 C440.55861164 64.600095 436.98004577 64.25274114 432.77786446 64.25726891 C432.04566923 64.26077498 431.313474 64.26428105 430.55909103 64.26789337 C428.09230787 64.27723735 425.62575924 64.27227639 423.15896606 64.26742554 C421.37787428 64.27116029 419.59678413 64.2757611 417.8156966 64.28115618 C412.91081909 64.29342321 408.00600959 64.29312137 403.10112023 64.29076743 C397.81539873 64.2903602 392.52969932 64.3013894 387.24398804 64.31088257 C376.88453328 64.3275136 366.52510128 64.33299305 356.16563429 64.33410732 C347.74758463 64.33505676 339.32954249 64.33916181 330.91149521 64.34550858 C307.05970569 64.36312636 283.20793419 64.37234655 259.35613813 64.37084763 C258.06959399 64.37076772 256.78304985 64.3706878 255.45751953 64.37060547 C254.16940982 64.37052371 252.88130011 64.37044195 251.55415677 64.37035771 C230.67155302 64.36954455 209.78902137 64.38868831 188.90643848 64.4168822 C167.47898259 64.44558414 146.05156188 64.459424 124.62408626 64.45769465 C112.58827921 64.45702984 100.55254774 64.46256197 88.51675797 64.48405075 C78.27034029 64.50222714 68.02403245 64.50663906 57.77760567 64.4930319 C52.54751946 64.48648446 47.31764419 64.48644898 42.08757782 64.5037384 C37.30210013 64.51939575 32.51700189 64.51668097 27.73153387 64.49917014 C25.9980437 64.49608401 24.26452573 64.49979292 22.53106834 64.51089029 C20.17818914 64.52495846 17.82665076 64.51446815 15.47381783 64.49777794 C14.16595098 64.49821267 12.85808413 64.49864741 11.51058495 64.49909532 C7.36706429 63.91001635 5.2286683 62.61947405 2 60 C-9.10016555 43.34975168 0 20.01110803 0 0 Z " fill="#BDC5C5" transform="translate(32,331)"/>
<path d="M0 0 C28.83334968 -0.06612609 57.66664207 -0.12152251 86.50004871 -0.15319599 C89.9034343 -0.15694815 93.30681973 -0.16083111 96.71020508 -0.16479492 C97.72654208 -0.16597532 97.72654208 -0.16597532 98.76341114 -0.16717956 C109.73698699 -0.18023652 120.71051574 -0.20389195 131.68406364 -0.23145839 C142.94239695 -0.25950453 154.20070671 -0.27595 165.4590767 -0.28226548 C171.7833899 -0.28618174 178.10759623 -0.29540729 184.43187523 -0.31719017 C190.3817347 -0.33751784 196.33144303 -0.34384129 202.28133392 -0.33932304 C204.46748233 -0.34014991 206.65363568 -0.34613757 208.8397541 -0.35761642 C211.82033287 -0.37250212 214.80033803 -0.36896776 217.78092957 -0.36076355 C218.64961062 -0.36950207 219.51829168 -0.3782406 220.4132964 -0.38724393 C225.09824632 -0.35229404 228.23048971 -0.0841776 232 3 C240.02246845 13.6966246 235 29.62921925 235 43 C157.45 43 79.9 43 0 43 C0 28.81 0 14.62 0 0 Z " fill="#BCC4C4" transform="translate(181,32)"/>
<path d="M0 0 C0 77.22 0 154.44 0 234 C-14.19 234 -28.38 234 -43 234 C-43.06612609 205.16665032 -43.12152251 176.33335793 -43.15319599 147.49995129 C-43.15694815 144.0965657 -43.16083111 140.69318027 -43.16479492 137.28979492 C-43.16558185 136.61223692 -43.16636878 135.93467892 -43.16717956 135.23658886 C-43.18023652 124.26301301 -43.20389195 113.28948426 -43.23145839 102.31593636 C-43.25950453 91.05760305 -43.27595 79.79929329 -43.28226548 68.5409233 C-43.28618174 62.2166101 -43.29540729 55.89240377 -43.31719017 49.56812477 C-43.33751784 43.6182653 -43.34384129 37.66855697 -43.33932304 31.71866608 C-43.34014991 29.53251767 -43.34613757 27.34636432 -43.35761642 25.1602459 C-43.37250212 22.17966713 -43.36896776 19.19966197 -43.36076355 16.21907043 C-43.36950207 15.35038938 -43.3782406 14.48170832 -43.38724393 13.5867036 C-43.35232599 8.90603626 -43.07129049 5.77937848 -40 2 C-28.89213723 -5.40524185 -13.3499896 0 0 0 Z " fill="#F6F7F7" transform="translate(75,75)"/>
<path d="M0 0 C36 0 36 0 40 2 C43.70927797 6.39931038 43.41578987 10.74900221 43.36076355 16.21907043 C43.36332682 17.15030894 43.3658901 18.08154745 43.36853105 19.04100531 C43.37347405 22.16268531 43.35696724 25.28388211 43.34057617 28.40551758 C43.33973001 30.64267973 43.34020482 32.87984272 43.34190369 35.11700439 C43.3427655 41.19303361 43.3251095 47.26888567 43.30418181 53.34487367 C43.28544607 59.69366705 43.28366702 66.04246436 43.28010559 72.39128113 C43.27183644 83.04824251 43.25308942 93.70513381 43.22631836 104.36206055 C43.19877469 115.3379687 43.17754262 126.31385918 43.16479492 137.28979492 C43.16400675 137.9665293 43.16321858 138.64326368 43.16240653 139.34050516 C43.15849137 142.73553605 43.15470026 146.13056707 43.15097082 149.52559817 C43.11987862 177.6837876 43.06457756 205.84186636 43 234 C28.81 234 14.62 234 0 234 C0 156.78 0 79.56 0 0 Z " fill="#F6F7F7" transform="translate(437,75)"/>
<path d="M0 0 C35.31 0 70.62 0 107 0 C107.99 9.405 107.99 9.405 109 19 C112.11638625 33.02373815 116.26259674 45.58781992 123.36328125 58.05859375 C125 61 125 61 126 64 C77.82 64 29.64 64 -20 64 C-18.55643742 60.39109355 -17.02954897 57.06404566 -15.23339844 53.63623047 C-7.24477567 38.27435503 -3.76523437 22.96649579 -1 6 C-0.67 4.02 -0.34 2.04 0 0 Z " fill="#BDC5C5" transform="translate(203,416)"/>
<path d="M0 0 C1.7115477 0.0001133 1.7115477 0.0001133 3.45767212 0.00022888 C4.69415497 0.00539017 5.93063782 0.01055145 7.20458984 0.01586914 C8.46693451 0.01728409 9.72927917 0.01869904 11.02987671 0.02015686 C14.38691033 0.02481461 17.74387635 0.03380131 21.10089111 0.04486084 C24.5260763 0.05508769 27.95126868 0.05971197 31.37646484 0.06469727 C38.09785719 0.07489355 44.81913083 0.09446661 51.54052734 0.11352539 C51.54052734 14.30352539 51.54052734 28.49352539 51.54052734 43.11352539 C30.42052734 43.11352539 9.30052734 43.11352539 -12.45947266 43.11352539 C-12.56259766 37.29727539 -12.66572266 31.48102539 -12.77197266 25.48852539 C-12.81749268 23.66369629 -12.8630127 21.83886719 -12.90991211 19.95874023 C-12.92452776 18.4973331 -12.93726589 17.03590547 -12.94775391 15.57446289 C-12.97333374 14.827854 -12.99891357 14.08124512 -13.02526855 13.31201172 C-13.02861556 9.26749411 -12.64023549 6.84232364 -10.05395508 3.6472168 C-6.45177892 0.12944281 -4.90607796 -0.01080634 0 0 Z " fill="#BCC4C4" transform="translate(108.45947265625,31.886474609375)"/>
<path d="M0 0 C3.39890142 2.06889652 5.88937011 4.11279537 7 8 C6.51426587 12.61458261 5.56679481 16.79762216 4.09814453 21.19140625 C3.51215988 22.95859009 3.51215988 22.95859009 2.91433716 24.76147461 C2.48737714 26.0285555 2.06019684 27.29556217 1.6328125 28.5625 C1.19258483 29.88079429 0.75280364 31.19923775 0.31344604 32.51782227 C-0.60584577 35.27258094 -1.52913022 38.02595629 -2.45556641 40.77832031 C-3.63735456 44.28972767 -4.81123967 47.80371185 -5.98238945 51.31867981 C-6.88938046 54.03910645 -7.799507 56.75847558 -8.71066666 59.47750854 C-9.1443142 60.77212925 -9.5772578 62.06698599 -10.00945663 63.36209106 C-15.7318669 80.48799516 -15.7318669 80.48799516 -18.625 83.9375 C-22.41115742 85.63130727 -25.93663419 85.74603686 -30 85 C-33.93995246 82.45544737 -34.81892367 80.76456094 -35.8972168 76.21166992 C-36.51698833 69.2870944 -33.86863306 63.00098014 -31.64453125 56.55078125 C-31.1805427 55.16598305 -30.71789386 53.78073533 -30.2565155 52.39506531 C-29.28977927 49.50419818 -28.31116971 46.6177395 -27.32299805 43.73413086 C-26.06155291 40.05184356 -24.82402057 36.36207801 -23.59451771 32.66901875 C-22.64173058 29.81229455 -21.67956741 26.95880174 -20.71426964 24.10628319 C-20.25488925 22.74712801 -19.79762904 21.38725421 -19.34259987 20.02663612 C-18.70331088 18.12188763 -18.05074627 16.22161068 -17.39770508 14.3215332 C-17.03050858 13.24281448 -16.66331207 12.16409576 -16.2849884 11.0526886 C-12.93690961 3.09880985 -9.06854345 -1.45238391 0 0 Z " fill="#F5F6F9" transform="translate(228,160)"/>
<path d="M0 0 C3.0625 2 3.0625 2 5 5 C5.94545074 11.4081835 4.38507521 17.03165627 2.21875 23.00390625 C1.92942596 23.83726501 1.64010193 24.67062378 1.3420105 25.52923584 C0.40766088 28.21174657 -0.54568103 30.88703603 -1.5 33.5625 C-2.14766581 35.40667366 -2.79398203 37.25132182 -3.43896484 39.09643555 C-4.39961321 41.8444139 -5.36108811 44.59205373 -6.32797241 47.33784485 C-8.14372391 52.50223304 -9.89752672 57.67814189 -11.5703125 62.890625 C-12.10495117 64.55436157 -12.10495117 64.55436157 -12.65039062 66.25170898 C-13.28037155 68.23018366 -13.90205437 70.21132832 -14.51367188 72.19555664 C-15.96731868 76.71533083 -17.08268848 80.01804654 -21 83 C-24.20173254 84.60086627 -27.52577059 84.49917089 -31 84 C-33.8100346 82.20636089 -35.50940468 80.98119065 -37 78 C-37.76831185 69.55521693 -35.26475295 62.47558816 -32.58203125 54.55078125 C-32.12239704 53.16580359 -31.66356408 51.78055979 -31.20549011 50.39506531 C-30.24656325 47.50508009 -29.27804472 44.61854405 -28.30249023 41.73413086 C-27.05793041 38.05178183 -25.83784243 34.36186444 -24.62483692 30.66901875 C-23.68318809 27.81143103 -22.72863107 24.95828394 -21.77020836 22.10628319 C-21.31537164 20.74774083 -20.86448262 19.3878697 -20.41776466 18.02663612 C-16.05852285 4.78876351 -16.05852285 4.78876351 -11 0 C-7.47282386 -1.76358807 -3.73435121 -0.91427219 0 0 Z " fill="#F6F7F9" transform="translate(272,161)"/>
<path d="M0 0 C1.84271484 -0.0309375 1.84271484 -0.0309375 3.72265625 -0.0625 C5.50736328 -0.07023437 5.50736328 -0.07023437 7.328125 -0.078125 C8.41512695 -0.0874707 9.50212891 -0.09681641 10.62207031 -0.10644531 C14.26585398 0.30878448 16.63179258 1.34150948 19.75 3.25 C22.4290573 7.26858595 22.44610694 10.52641721 21.75 15.25 C19.95606332 18.12029869 18.76736724 19.74131638 15.75 21.25 C11.52235896 21.50789144 7.29090056 21.52101954 3.05639648 21.54516602 C0.95554948 21.56235234 -1.14371201 21.60623599 -3.24414062 21.65039062 C-4.58592595 21.66052052 -5.92772464 21.6690357 -7.26953125 21.67578125 C-9.09641479 21.69765503 -9.09641479 21.69765503 -10.96020508 21.7199707 C-14.85809753 21.16312892 -16.47674702 19.98695135 -19.25 17.25 C-20.98631636 13.77736727 -20.85190402 10.03806987 -20.25 6.25 C-14.44885924 -1.07775675 -8.73534192 0.03620867 0 0 Z " fill="#F7F8F8" transform="translate(255.25,351.75)"/>
<path d="M0 0 C3.39890142 2.06889652 5.88937011 4.11279537 7 8 C6.91804478 12.50753706 6.48833209 14.4384181 3.5 17.875 C2.675 18.57625 1.85 19.2775 1 20 C0.67 20.33 0.34 20.66 0 21 C-7.07616708 21.58968059 -7.07616708 21.58968059 -10.9375 19.125 C-14.47635175 15.47891032 -14.46656527 12.41906708 -14.40234375 7.48828125 C-13.96124571 4.76032538 -13.49130169 3.7475791 -11.5 1.875 C-6.98726299 -0.54253769 -5.05501205 -0.72214458 0 0 Z " fill="#F5F4F9" transform="translate(164,171)"/>
<path d="M0 0 C3.125 1.875 3.125 1.875 5 5 C5.98876625 10.02622846 5.7769173 13.70513784 3.125 18.125 C-1.29486216 20.7769173 -4.97377154 20.98876625 -10 20 C-13.125 18.125 -13.125 18.125 -15 15 C-15.98876625 9.97377154 -15.7769173 6.29486216 -13.125 1.875 C-8.70513784 -0.7769173 -5.02622846 -0.98876625 0 0 Z " fill="#F6F6F9" transform="translate(165,214)"/>
</svg>
